<?xml version="1.0" standalone="no"?>
<!DOCTYPE svg PUBLIC "-//W3C//DTD SVG 20010904//EN"
 "http://www.w3.org/TR/2001/REC-SVG-20010904/DTD/svg10.dtd">
<svg version="1.0" xmlns="http://www.w3.org/2000/svg"
 width="302.000000pt" height="302.000000pt" viewBox="0 0 302.000000 302.000000"
 preserveAspectRatio="xMidYMid meet">

<defs>
  <linearGradient id="tealGreenGradient" x1="0%" y1="0%" x2="100%" y2="100%">
    <stop offset="0%" stop-color="#81e1ff"/>   <!-- твой исходный голубой -->
    <stop offset="100%" stop-color="#3FE88A"/> <!-- добавленный зелёный -->
  </linearGradient>
</defs>

<g transform="translate(0.000000,302.000000) scale(0.100000,-0.100000)"
fill="url(#tealGreenGradient)" stroke="none">
<path d="M45 2714 l-25 -27 0 -363 0 -364 23 -13 c93 -57 435 -257 448 -262
14 -5 21 7 39 62 39 116 100 229 188 344 23 31 42 59 42 62 0 4 -65 7 -144 7
l-144 0 -21 -34 c-68 -110 -252 -75 -277 53 -15 74 32 158 102 181 70 23 170
-21 195 -87 8 -23 9 -23 195 -23 l186 0 60 45 c337 253 843 307 1226 130 214
-99 403 -275 512 -478 147 -272 177 -593 83 -891 -101 -323 -340 -557 -665
-650 -359 -103 -734 -18 -1037 234 l-61 50 -247 -2 -247 -3 -8 -31 c-4 -18
-24 -46 -43 -62 -81 -72 -201 -46 -246 52 -24 53 -24 88 1 135 52 103 167 121
255 40 l42 -39 212 0 c116 0 211 2 211 5 0 2 -17 31 -37 63 -21 32 -49 81 -62
110 -23 49 -27 52 -53 47 -23 -5 -55 9 -177 79 -82 47 -170 99 -197 116 l-48
30 -163 0 -163 0 0 -60 0 -60 133 -1 132 0 114 -77 c63 -42 123 -89 135 -105
18 -24 19 -29 5 -43 -21 -21 -47 -9 -179 77 l-108 70 -113 -3 -114 -3 0 -428
0 -429 24 -19 c24 -20 43 -20 990 -16 1015 4 996 3 1167 52 390 112 678 413
785 820 29 109 32 137 36 315 4 151 2 216 -11 286 -45 260 -167 513 -339 699
-164 179 -419 328 -667 390 -167 41 -257 45 -1111 45 l-810 0 -24 -26z"/>
<path d="M1411 2409 c-51 -11 -126 -32 -165 -47 l-71 -28 -3 -292 c-1 -160 0
-292 2 -292 5 0 306 181 686 412 261 158 250 152 250 160 0 13 -165 70 -255
89 -123 25 -317 25 -444 -2z"/>
<path d="M270 2265 c-47 -50 -12 -135 56 -135 37 0 74 42 74 84 0 67 -84 100
-130 51z"/>
<path d="M1010 2239 c-133 -100 -261 -251 -333 -394 -31 -63 -74 -192 -83
-251 -3 -24 -9 -46 -13 -49 -8 -4 -55 22 -363 203 -114 67 -210 122 -213 122
-3 0 -5 -33 -5 -74 l0 -74 122 -74 123 -73 72 -130 c40 -71 80 -143 88 -160
11 -23 44 -45 133 -92 64 -35 136 -74 160 -88 49 -30 49 -29 22 75 -23 83 -47
247 -38 255 3 3 92 -33 198 -80 106 -47 195 -85 198 -85 5 0 -6 1001 -11 1006
-2 2 -27 -15 -57 -37z"/>
<path d="M1933 2102 c-150 -92 -273 -169 -273 -172 0 -4 152 -81 338 -173 185
-93 415 -208 511 -257 l174 -89 -8 82 c-25 295 -191 590 -420 747 -24 17 -45
30 -47 30 -2 -1 -126 -76 -275 -168z"/>
<path d="M0 1464 l0 -154 141 0 c77 0 139 3 137 8 -14 30 -75 143 -93 173 -16
24 -49 51 -104 82 l-81 46 0 -155z"/>
<path d="M2151 1061 c2 -280 7 -513 11 -517 14 -13 171 90 238 156 145 142
242 343 266 549 l6 60 -262 131 -262 131 3 -510z"/>
<path d="M806 1233 c8 -27 19 -66 25 -87 17 -62 83 -198 128 -264 47 -69 140
-173 182 -203 l29 -20 63 37 c345 207 414 254 366 254 -12 0 -522 210 -679
279 -62 28 -117 51 -122 51 -4 0 0 -21 8 -47z"/>
<path d="M1790 933 c-487 -294 -533 -324 -518 -339 19 -20 172 -81 265 -106
107 -29 365 -30 463 -1 l65 18 -3 285 c-2 157 -7 288 -10 291 -4 3 -122 -63
-262 -148z"/>
<path d="M303 792 c-30 -5 -63 -48 -63 -83 0 -42 40 -82 80 -82 68 0 107 95
58 140 -27 24 -45 30 -75 25z"/>
</g>
</svg>
